<?xml version="1.0" standalone="no"?>
<!DOCTYPE svg PUBLIC "-//W3C//DTD SVG 20010904//EN"
 "http://www.w3.org/TR/2001/REC-SVG-20010904/DTD/svg10.dtd">
<svg version="1.0" xmlns="http://www.w3.org/2000/svg"
 width="1280.000000pt" height="1165.000000pt" viewBox="0 0 1280.000000 1165.000000"
 preserveAspectRatio="xMidYMid meet">
<g transform="translate(0.000000,1165.000000) scale(0.100000,-0.100000)"
fill="#000000" stroke="none">
<path d="M2150 11638 c-14 -6 -42 -17 -63 -26 -79 -32 -157 -146 -190 -277
-59 -229 -54 -621 14 -1085 42 -289 142 -787 224 -1112 31 -119 31 -126 3
-132 -13 -3 -49 -10 -80 -16 -32 -6 -58 -15 -58 -19 0 -4 47 -35 104 -69 104
-61 105 -62 119 -114 61 -212 87 -322 80 -328 -4 -4 -46 -2 -93 6 -349 57
-661 75 -777 46 -51 -13 -64 -32 -22 -32 30 0 225 -65 358 -120 198 -81 387
-181 377 -199 -3 -4 -36 -11 -73 -15 -82 -7 -404 -73 -415 -84 -19 -19 62 -69
227 -140 89 -39 277 -144 282 -157 2 -6 -97 -10 -279 -10 l-283 0 -101 -32
c-56 -18 -151 -51 -210 -75 -100 -38 -106 -42 -79 -49 17 -4 100 -21 185 -38
85 -18 220 -46 300 -62 305 -65 758 -215 729 -243 -3 -3 -59 -16 -125 -30
-122 -25 -326 -81 -517 -142 -59 -19 -147 -43 -195 -54 -136 -32 -238 -78
-174 -81 9 0 68 -4 131 -8 102 -8 120 -12 180 -44 162 -85 191 -103 188 -111
-2 -5 -41 -17 -88 -26 -91 -19 -248 -75 -344 -122 -145 -73 -279 -187 -338
-288 -26 -46 -57 -146 -57 -187 0 -22 3 -21 62 17 103 67 298 159 383 180 135
35 441 37 452 4 2 -7 -24 -28 -59 -47 -35 -20 -79 -53 -99 -74 -45 -47 -93
-112 -88 -118 2 -2 31 6 64 17 91 32 450 40 431 9 -3 -4 -30 -13 -61 -20 -91
-20 -277 -104 -379 -169 -92 -59 -206 -151 -282 -228 -82 -83 -209 -242 -200
-251 5 -6 209 29 336 57 199 44 489 78 731 87 230 8 239 3 128 -68 -46 -30
-165 -121 -265 -204 -99 -82 -194 -160 -210 -172 l-29 -22 25 0 c14 -1 42 4
63 10 22 6 41 8 44 5 3 -3 -22 -36 -57 -73 -121 -129 -225 -318 -245 -443 l-7
-45 74 71 c40 40 100 90 133 112 129 87 306 159 415 169 53 5 54 5 32 -12 -12
-9 -32 -35 -43 -58 -12 -23 -40 -69 -64 -102 -23 -33 -61 -95 -84 -138 l-43
-78 36 6 c20 4 36 4 36 1 0 -4 -11 -24 -24 -45 -14 -21 -32 -55 -40 -76 -18
-43 -89 -375 -82 -382 2 -3 67 23 143 57 148 67 208 85 401 120 87 16 126 20
134 12 18 -18 -62 -245 -162 -456 -28 -60 -49 -110 -48 -111 2 -2 39 19 83 46
70 43 115 60 115 43 0 -3 -36 -60 -81 -126 -120 -180 -187 -321 -204 -428 l-7
-45 74 79 c177 192 429 322 828 426 72 19 118 26 124 20 12 -12 1 -36 -95
-200 -43 -75 -79 -142 -79 -149 0 -7 37 22 83 65 57 53 104 87 152 110 74 35
165 54 165 36 0 -6 -37 -42 -82 -80 -120 -100 -302 -293 -380 -403 -79 -110
-148 -238 -177 -329 -18 -55 -46 -288 -36 -298 2 -2 22 28 45 67 44 76 173
244 236 306 49 50 96 69 240 99 100 21 142 37 263 96 79 39 147 67 152 63 4
-4 -8 -52 -26 -106 l-34 -98 47 39 c69 57 102 76 112 66 5 -5 -11 -72 -41
-164 -127 -395 -182 -647 -183 -832 -1 -157 8 -173 53 -94 120 209 453 540
730 725 175 117 240 145 227 99 -33 -117 -106 -556 -106 -635 0 -36 0 -36 62
53 33 49 88 130 121 179 127 191 341 465 363 465 8 0 14 -22 18 -63 3 -34 11
-118 16 -187 10 -110 30 -237 47 -294 4 -13 15 1 41 55 28 60 58 97 156 197
91 92 126 121 139 116 22 -8 21 -21 -3 -78 -33 -74 -60 -212 -67 -343 -3 -68
-3 -123 0 -123 3 0 22 51 42 113 44 133 100 265 138 325 29 45 57 54 93 28 18
-14 19 -28 18 -286 -1 -266 0 -272 18 -249 31 41 93 178 143 319 27 74 53 141
58 148 10 13 63 8 79 -7 4 -3 11 -64 17 -136 17 -212 41 -259 55 -110 9 89 35
216 48 232 9 11 141 13 152 2 2 -2 18 -40 35 -84 28 -73 96 -183 107 -173 2 3
-5 41 -17 86 -11 46 -19 103 -17 133 3 52 4 53 37 60 19 4 40 5 48 2 13 -5 89
-232 165 -496 23 -81 45 -147 48 -147 6 0 42 329 64 584 11 133 21 158 59 143
19 -7 86 -179 131 -334 19 -65 37 -111 40 -103 9 27 25 123 41 245 20 154 23
165 40 165 7 0 42 -31 76 -70 117 -130 223 -293 264 -405 10 -27 21 -54 25
-58 4 -5 10 29 14 75 10 128 -16 394 -54 553 -20 84 -13 84 99 1 105 -78 214
-144 310 -186 77 -33 223 -74 243 -68 7 3 -8 18 -33 35 -90 62 -158 143 -210
248 -27 55 -52 115 -55 133 -6 29 -4 32 19 32 35 0 260 -58 313 -80 60 -26
151 -89 236 -163 163 -142 237 -202 307 -248 92 -61 110 -63 76 -8 -34 53 -77
161 -111 279 -39 137 -102 404 -97 413 8 13 53 7 93 -13 22 -11 65 -41 96 -66
38 -32 55 -41 51 -28 -3 11 -24 70 -47 133 -58 165 -63 155 78 148 136 -8 211
-20 302 -49 59 -19 74 -30 165 -122 87 -88 159 -182 234 -306 l21 -35 -1 75
c0 129 -22 221 -82 344 -74 148 -152 254 -269 361 -53 48 -95 92 -92 97 5 8
44 -6 97 -34 42 -22 176 -139 182 -159 10 -30 22 -22 17 11 -2 16 -1 30 2 30
3 0 82 -38 174 -84 280 -140 491 -218 689 -256 106 -20 263 -36 263 -26 0 3
-46 35 -101 71 -254 165 -526 404 -663 585 -55 71 -106 156 -106 175 0 48 300
-45 435 -135 32 -21 61 -38 63 -36 1 2 -27 68 -64 147 -80 175 -160 407 -145
422 18 18 331 -48 405 -85 119 -60 296 -189 477 -348 60 -53 62 -54 55 -25
-13 53 -91 209 -161 321 -73 115 -122 185 -267 376 -116 154 -116 162 2 103
38 -19 75 -35 81 -35 13 0 -52 121 -132 242 -32 50 -59 96 -59 104 0 7 -12 20
-27 29 -58 33 79 8 222 -41 138 -47 142 -48 270 -48 94 -1 149 4 200 17 76 20
177 66 179 82 0 6 -15 11 -34 13 -136 11 -376 79 -544 154 -144 64 -147 72
-38 82 107 9 385 56 396 67 15 14 -69 46 -374 144 -136 44 -246 94 -349 159
-40 25 -42 29 -26 39 27 15 333 2 550 -23 99 -12 257 -36 350 -55 233 -47 355
-68 360 -63 15 14 -158 221 -258 310 -98 88 -165 136 -277 202 -100 60 -267
129 -337 141 -24 4 -45 11 -48 16 -11 17 47 21 208 17 130 -4 174 -9 222 -26
33 -11 61 -19 63 -17 8 7 -57 92 -102 133 -25 23 -84 61 -131 84 -47 23 -84
47 -82 52 2 5 75 39 162 76 241 101 396 173 504 234 87 49 149 96 125 96 -5 0
-63 -7 -129 -15 -165 -20 -515 -30 -535 -15 -9 7 -11 13 -4 16 5 2 63 34 128
70 126 70 203 94 309 94 31 0 57 4 57 9 0 12 -458 164 -645 215 -71 19 -177
44 -234 56 -58 11 -107 23 -110 25 -10 11 20 27 130 69 104 40 319 108 429
136 25 7 126 42 225 79 99 37 203 73 230 80 83 21 83 21 55 37 -122 69 -534
119 -768 95 -63 -7 -117 -10 -120 -6 -19 19 82 71 463 240 171 76 312 139 314
141 16 15 -49 19 -341 24 -224 3 -333 8 -335 16 -2 6 22 31 54 56 73 57 236
223 303 307 72 90 147 248 127 267 -3 4 -39 -15 -79 -42 -145 -95 -530 -276
-549 -257 -5 5 5 61 25 133 19 69 39 144 45 168 11 40 18 46 116 104 58 33
105 65 105 69 0 4 -26 13 -57 19 -88 17 -106 27 -99 53 26 97 127 548 166 747
94 474 133 795 134 1110 0 235 -10 334 -45 455 -27 92 -52 137 -102 192 -44
47 -69 63 -138 87 -60 21 -73 20 -200 -14 -295 -80 -547 -209 -854 -435 -203
-150 -358 -287 -608 -538 l-247 -248 -178 -90 c-213 -109 -470 -229 -489 -229
-16 0 -16 0 4 46 25 57 22 258 -5 382 -30 132 -33 135 -69 71 -84 -148 -266
-346 -370 -402 -28 -15 -69 -28 -90 -30 l-38 -2 0 160 c0 88 3 207 7 263 l7
104 -27 -7 c-35 -8 -318 -138 -504 -231 -81 -41 -156 -74 -166 -74 -14 0 -36
36 -90 150 -39 83 -74 150 -77 150 -3 0 -32 -28 -64 -63 -33 -34 -90 -80 -127
-102 -38 -22 -96 -66 -130 -97 -34 -32 -64 -58 -66 -58 -2 0 -37 37 -76 83
-100 117 -392 367 -428 367 -6 0 -21 -60 -34 -137 -29 -178 -46 -263 -54 -270
-8 -9 -186 45 -336 102 -145 54 -272 114 -339 161 -29 19 -55 34 -57 32 -2 -2
19 -118 47 -256 28 -139 48 -260 45 -268 -16 -42 -152 23 -429 205 -214 140
-346 215 -372 209 -9 -2 12 -44 65 -130 82 -131 173 -297 185 -335 5 -18 2
-23 -12 -23 -22 0 -265 112 -504 233 l-167 84 -243 245 c-560 563 -998 855
-1467 978 -120 32 -152 35 -192 18z"/>
</g>
</svg>
